<?xml version="1.0" encoding="UTF-8" standalone="no"?>
<svg width="27px" height="46px" viewBox="0 0 27 46" version="1.1" xmlns="http://www.w3.org/2000/svg" xmlns:xlink="http://www.w3.org/1999/xlink">
    <!-- Generator: Sketch 3.8.1 (29687) - http://www.bohemiancoding.com/sketch -->
    <title>back-hover</title>
    <desc>Created with Sketch.</desc>
    <defs></defs>
    <g id="Page-1" stroke="none" stroke-width="1" fill="none" fill-rule="evenodd" opacity="0.904757463">
        <g id="back-hover" fill="#BDBDBD">
            <g id="Page-1">
                <g id="back">
                    <g id="angle">
                        <path d="M8.63312022,23.0787684 L26.2396248,5.47281374 C26.5381985,5.17423997 26.6872105,4.83057772 26.6872105,4.44237684 C26.6872105,4.05417596 26.5381985,3.71051371 26.2396248,3.41248979 L23.9994968,1.17236177 C23.7009229,0.873788002 23.3572608,0.72422619 22.9696097,0.72422619 C22.5814088,0.72422619 22.2377466,0.873788002 21.9391728,1.17236177 L1.06265318,22.0483315 C0.764079413,22.3469053 0.61506746,22.6905675 0.61506746,23.0787684 C0.61506746,23.4669693 0.764079413,23.8106316 1.06265318,24.1092053 L21.9386229,44.9851751 C22.2371967,45.2842987 22.580859,45.4333107 22.9690599,45.4333107 C23.3567108,45.4333107 23.7003731,45.2842987 23.9989468,44.9851751 L26.2390749,42.7461467 C26.5376486,42.447573 26.6866606,42.1039107 26.6866606,41.71516 C26.6866606,41.3275089 26.5376486,40.9838468 26.2390749,40.6852729 L8.63312022,23.0787684 L8.63312022,23.0787684 L8.63312022,23.0787684 L8.63312022,23.0787684 Z" id="Shape"></path>
                    </g>
                </g>
            </g>
        </g>
    </g>
</svg>