<?xml version="1.0" encoding="UTF-8" standalone="no"?>
<svg width="27px" height="45px" viewBox="0 0 27 45" version="1.1" xmlns="http://www.w3.org/2000/svg" xmlns:xlink="http://www.w3.org/1999/xlink">
    <!-- Generator: Sketch 3.8.1 (29687) - http://www.bohemiancoding.com/sketch -->
    <title>next-hover</title>
    <desc>Created with Sketch.</desc>
    <defs></defs>
    <g id="Page-1" stroke="none" stroke-width="1" fill="none" fill-rule="evenodd" opacity="0.92811334">
        <g id="next-hover" fill="#BDBDBD">
            <g id="Page-1">
                <g id="next">
                    <g id="angle-copy-3" transform="translate(13.392857, 22.500000) scale(-1, 1) translate(-13.392857, -22.500000) ">
                        <path d="M25.6691982,5.35383953 C25.9612812,5.06175649 26.1070537,4.72556516 26.1070537,4.34580343 C26.1070537,3.9660417 25.9612812,3.62985036 25.6691982,3.33830523 L23.4777686,1.14687565 C23.1856855,0.854792611 22.8494942,0.708482143 22.4702703,0.708482143 C22.0905086,0.708482143 21.7543173,0.854792611 21.4622342,1.14687565 L1.03955202,21.56902 C0.747468991,21.861103 0.601696428,22.1972943 0.601696428,22.5770561 C0.601696428,22.9568178 0.747468991,23.2930092 1.03955202,23.5850922 L21.4616964,44.0072365 C21.7537794,44.2998574 22.0899707,44.44563 22.4697325,44.44563 C22.8489562,44.44563 23.1851476,44.2998574 23.4772306,44.0072365 L25.6686602,41.8168827 C25.9607432,41.5247997 26.1065158,41.1886083 26.1065158,40.8083087 C26.1065158,40.4290848 25.9607432,40.0928936 25.6686602,39.8008105 L8.44544369,22.5770561 L25.6691982,5.35383953 Z" id="Shape"></path>
                    </g>
                </g>
            </g>
        </g>
    </g>
</svg>