<?xml version="1.0" encoding="UTF-8" standalone="no"?>
<svg width="25px" height="42px" viewBox="0 0 25 42" version="1.1" xmlns="http://www.w3.org/2000/svg" xmlns:xlink="http://www.w3.org/1999/xlink">
    <!-- Generator: Sketch 3.8.1 (29687) - http://www.bohemiancoding.com/sketch -->
    <title>next</title>
    <desc>Created with Sketch.</desc>
    <defs></defs>
    <g id="Page-1" stroke="none" stroke-width="1" fill="none" fill-rule="evenodd" opacity="0.2">
        <g id="next" fill="#BDBDBD">
            <g id="Page-1">
                <g id="next">
                    <g id="angle-copy-3" transform="translate(12.500000, 21.000000) scale(-1, 1) translate(-12.500000, -21.000000) ">
                        <path d="M23.9579183,4.99691689 C24.2305291,4.72430606 24.3665835,4.41052748 24.3665835,4.0560832 C24.3665835,3.70163892 24.2305291,3.38786034 23.9579183,3.11575155 L21.912584,1.07041727 C21.6399731,0.797806437 21.3261946,0.66125 20.9722523,0.66125 C20.617808,0.66125 20.3040295,0.797806437 20.0314186,1.07041727 L0.970248554,20.1310853 C0.697637725,20.4036961 0.561583333,20.7174747 0.561583333,21.071919 C0.561583333,21.4263633 0.697637725,21.7401419 0.970248554,22.0127527 L20.0309166,41.0734207 C20.3035274,41.3465336 20.617306,41.482588 20.9717503,41.482588 C21.3256925,41.482588 21.6394711,41.3465336 21.9120819,41.0734207 L23.9574162,39.0290905 C24.230027,38.7564797 24.3660814,38.4427011 24.3660814,38.0877548 C24.3660814,37.7338125 24.230027,37.420034 23.9574162,37.1474231 L7.88241411,21.071919 L23.9579183,4.99691689 Z" id="Shape"></path>
                    </g>
                </g>
            </g>
        </g>
    </g>
</svg>